<svg id="visual" viewBox="0 0 1920 1080" width="1920" height="1080" xmlns="http://www.w3.org/2000/svg" xmlns:xlink="http://www.w3.org/1999/xlink" version="1.1"><rect x="0" y="0" width="1920" height="1080" fill="#001220"></rect><defs><linearGradient id="grad1_0" x1="43.8%" y1="0%" x2="100%" y2="100%"><stop offset="14.444444444444446%" stop-color="#83fd00" stop-opacity="1"></stop><stop offset="85.55555555555554%" stop-color="#83fd00" stop-opacity="1"></stop></linearGradient></defs><defs><linearGradient id="grad1_1" x1="43.8%" y1="0%" x2="100%" y2="100%"><stop offset="14.444444444444446%" stop-color="#83fd00" stop-opacity="1"></stop><stop offset="85.55555555555554%" stop-color="#00d168" stop-opacity="1"></stop></linearGradient></defs><defs><linearGradient id="grad1_2" x1="43.8%" y1="0%" x2="100%" y2="100%"><stop offset="14.444444444444446%" stop-color="#00a087" stop-opacity="1"></stop><stop offset="85.55555555555554%" stop-color="#00d168" stop-opacity="1"></stop></linearGradient></defs><defs><linearGradient id="grad1_3" x1="43.8%" y1="0%" x2="100%" y2="100%"><stop offset="14.444444444444446%" stop-color="#00a087" stop-opacity="1"></stop><stop offset="85.55555555555554%" stop-color="#006d82" stop-opacity="1"></stop></linearGradient></defs><defs><linearGradient id="grad1_4" x1="43.8%" y1="0%" x2="100%" y2="100%"><stop offset="14.444444444444446%" stop-color="#003d5a" stop-opacity="1"></stop><stop offset="85.55555555555554%" stop-color="#006d82" stop-opacity="1"></stop></linearGradient></defs><defs><linearGradient id="grad1_5" x1="43.8%" y1="0%" x2="100%" y2="100%"><stop offset="14.444444444444446%" stop-color="#003d5a" stop-opacity="1"></stop><stop offset="85.55555555555554%" stop-color="#001220" stop-opacity="1"></stop></linearGradient></defs><defs><linearGradient id="grad2_0" x1="0%" y1="0%" x2="56.3%" y2="100%"><stop offset="14.444444444444446%" stop-color="#83fd00" stop-opacity="1"></stop><stop offset="85.55555555555554%" stop-color="#83fd00" stop-opacity="1"></stop></linearGradient></defs><defs><linearGradient id="grad2_1" x1="0%" y1="0%" x2="56.3%" y2="100%"><stop offset="14.444444444444446%" stop-color="#00d168" stop-opacity="1"></stop><stop offset="85.55555555555554%" stop-color="#83fd00" stop-opacity="1"></stop></linearGradient></defs><defs><linearGradient id="grad2_2" x1="0%" y1="0%" x2="56.3%" y2="100%"><stop offset="14.444444444444446%" stop-color="#00d168" stop-opacity="1"></stop><stop offset="85.55555555555554%" stop-color="#00a087" stop-opacity="1"></stop></linearGradient></defs><defs><linearGradient id="grad2_3" x1="0%" y1="0%" x2="56.3%" y2="100%"><stop offset="14.444444444444446%" stop-color="#006d82" stop-opacity="1"></stop><stop offset="85.55555555555554%" stop-color="#00a087" stop-opacity="1"></stop></linearGradient></defs><defs><linearGradient id="grad2_4" x1="0%" y1="0%" x2="56.3%" y2="100%"><stop offset="14.444444444444446%" stop-color="#006d82" stop-opacity="1"></stop><stop offset="85.55555555555554%" stop-color="#003d5a" stop-opacity="1"></stop></linearGradient></defs><defs><linearGradient id="grad2_5" x1="0%" y1="0%" x2="56.3%" y2="100%"><stop offset="14.444444444444446%" stop-color="#001220" stop-opacity="1"></stop><stop offset="85.55555555555554%" stop-color="#003d5a" stop-opacity="1"></stop></linearGradient></defs><g transform="translate(1920, 0)"><path d="M0 972C-51.1 892.8 -102.3 813.6 -159.2 800.3C-216.1 787 -278.8 839.5 -359 866.6C-439.1 893.7 -536.7 895.2 -540 808.2C-543.3 721.2 -452.3 545.6 -503.5 503.5C-554.6 461.4 -748 552.8 -799 533.9C-850.1 515 -758.8 385.9 -751.1 311.1C-743.4 236.3 -819.2 215.8 -870 173C-920.7 130.2 -946.3 65.1 -972 0L0 0Z" fill="#00263e"></path><path d="M0 810C-42.6 744 -85.2 678 -132.7 666.9C-180.1 655.8 -232.3 699.6 -299.1 722.2C-365.9 744.7 -447.3 746 -450 673.5C-452.8 601 -376.9 454.6 -419.6 419.6C-462.2 384.5 -623.3 460.6 -665.9 444.9C-708.4 429.2 -632.4 321.6 -625.9 259.3C-619.5 196.9 -682.7 179.9 -725 144.2C-767.2 108.5 -788.6 54.3 -810 0L0 0Z" fill="#005571"></path><path d="M0 648C-34.1 595.2 -68.2 542.4 -106.1 533.5C-144.1 524.7 -185.9 559.7 -239.3 577.7C-292.7 595.8 -357.8 596.8 -360 538.8C-362.2 480.8 -301.5 363.7 -335.6 335.6C-369.8 307.6 -498.7 368.5 -532.7 355.9C-566.7 343.4 -505.9 257.3 -500.7 207.4C-495.6 157.5 -546.1 143.9 -580 115.4C-613.8 86.8 -630.9 43.4 -648 0L0 0Z" fill="#008789"></path><path d="M0 486C-25.6 446.4 -51.1 406.8 -79.6 400.2C-108.1 393.5 -139.4 419.8 -179.5 433.3C-219.6 446.8 -268.4 447.6 -270 404.1C-271.7 360.6 -226.1 272.8 -251.7 251.7C-277.3 230.7 -374 276.4 -399.5 267C-425 257.5 -379.4 193 -375.6 155.6C-371.7 118.2 -409.6 107.9 -435 86.5C-460.3 65.1 -473.2 32.6 -486 0L0 0Z" fill="#00b97c"></path><path d="M0 324C-17 297.6 -34.1 271.2 -53.1 266.8C-72 262.3 -92.9 279.8 -119.7 288.9C-146.4 297.9 -178.9 298.4 -180 269.4C-181.1 240.4 -150.8 181.9 -167.8 167.8C-184.9 153.8 -249.3 184.3 -266.3 178C-283.4 171.7 -252.9 128.6 -250.4 103.7C-247.8 78.8 -273.1 71.9 -290 57.7C-306.9 43.4 -315.4 21.7 -324 0L0 0Z" fill="#00e849"></path><path d="M0 162C-8.5 148.8 -17 135.6 -26.5 133.4C-36 131.2 -46.5 139.9 -59.8 144.4C-73.2 148.9 -89.5 149.2 -90 134.7C-90.6 120.2 -75.4 90.9 -83.9 83.9C-92.4 76.9 -124.7 92.1 -133.2 89C-141.7 85.8 -126.5 64.3 -125.2 51.9C-123.9 39.4 -136.5 36 -145 28.8C-153.4 21.7 -157.7 10.9 -162 0L0 0Z" fill="#83fd00"></path></g><g transform="translate(0, 1080)"><path d="M0 -972C55.5 -925.7 111 -879.3 170.9 -859.2C230.8 -839 295.2 -845.1 332.9 -803.8C370.6 -762.5 381.7 -673.8 435.6 -651.9C489.4 -629.9 586.2 -674.7 674.6 -674.6C763 -674.4 843.1 -629.4 808.2 -540C773.3 -450.6 623.5 -316.9 606.1 -251C588.6 -185.1 703.5 -187 786.6 -156.5C869.6 -125.9 920.8 -63 972 0L0 0Z" fill="#00263e"></path><path d="M0 -810C46.2 -771.4 92.5 -732.8 142.4 -716C192.4 -699.2 246 -704.2 277.4 -669.8C308.9 -635.4 318.1 -561.5 363 -543.2C407.9 -524.9 488.5 -562.3 562.1 -562.1C635.8 -562 702.5 -524.5 673.5 -450C644.4 -375.5 519.6 -264.1 505.1 -209.2C490.5 -154.3 586.3 -155.8 655.5 -130.4C724.7 -104.9 767.3 -52.5 810 0L0 0Z" fill="#005571"></path><path d="M0 -648C37 -617.1 74 -586.2 113.9 -572.8C153.9 -559.3 196.8 -563.4 222 -535.9C247.1 -508.3 254.5 -449.2 290.4 -434.6C326.3 -420 390.8 -449.8 449.7 -449.7C508.7 -449.6 562 -419.6 538.8 -360C515.5 -300.4 415.7 -211.3 404 -167.4C392.4 -123.4 469 -124.7 524.4 -104.3C579.8 -83.9 613.9 -42 648 0L0 0Z" fill="#008789"></path><path d="M0 -486C27.7 -462.8 55.5 -439.7 85.4 -429.6C115.4 -419.5 147.6 -422.5 166.5 -401.9C185.3 -381.2 190.8 -336.9 217.8 -325.9C244.7 -315 293.1 -337.4 337.3 -337.3C381.5 -337.2 421.5 -314.7 404.1 -270C386.7 -225.3 311.8 -158.5 303 -125.5C294.3 -92.6 351.8 -93.5 393.3 -78.2C434.8 -63 460.4 -31.5 486 0L0 0Z" fill="#00b97c"></path><path d="M0 -324C18.5 -308.6 37 -293.1 57 -286.4C76.9 -279.7 98.4 -281.7 111 -267.9C123.5 -254.2 127.2 -224.6 145.2 -217.3C163.1 -210 195.4 -224.9 224.9 -224.9C254.3 -224.8 281 -209.8 269.4 -180C257.8 -150.2 207.8 -105.6 202 -83.7C196.2 -61.7 234.5 -62.3 262.2 -52.2C289.9 -42 306.9 -21 324 0L0 0Z" fill="#00e849"></path><path d="M0 -162C9.2 -154.3 18.5 -146.6 28.5 -143.2C38.5 -139.8 49.2 -140.8 55.5 -134C61.8 -127.1 63.6 -112.3 72.6 -108.6C81.6 -105 97.7 -112.5 112.4 -112.4C127.2 -112.4 140.5 -104.9 134.7 -90C128.9 -75.1 103.9 -52.8 101 -41.8C98.1 -30.9 117.3 -31.2 131.1 -26.1C144.9 -21 153.5 -10.5 162 0L0 0Z" fill="#83fd00"></path></g></svg>